<?xml version="1.0" standalone="no"?>
<!DOCTYPE svg PUBLIC "-//W3C//DTD SVG 20010904//EN"
 "http://www.w3.org/TR/2001/REC-SVG-20010904/DTD/svg10.dtd">
<svg version="1.0" xmlns="http://www.w3.org/2000/svg"
 width="1024.000000pt" height="1024.000000pt" viewBox="0 0 1024.000000 1024.000000"
 preserveAspectRatio="xMidYMid meet">

<g transform="translate(0.000000,1024.000000) scale(0.100000,-0.100000)"
fill="#000000" stroke="none">
<path d="M0 5120 l0 -5120 5120 0 5120 0 0 5120 0 5120 -5120 0 -5120 0 0
-5120z m5657 2240 c202 -42 300 -126 417 -359 l37 -73 29 41 c52 71 183 141
267 141 101 0 123 -24 142 -150 16 -104 -12 -313 -45 -341 -14 -12 -151 -7
-216 7 l-28 6 53 -103 c29 -57 69 -142 90 -188 33 -76 39 -83 59 -77 130 38
179 46 280 46 118 0 228 -20 293 -52 l39 -21 -49 -25 -50 -25 52 -17 c155 -51
329 -214 420 -394 57 -113 76 -201 77 -356 0 -117 -3 -148 -27 -232 -40 -147
-84 -224 -191 -337 -168 -176 -361 -261 -593 -261 -307 0 -614 202 -748 492
-57 125 -78 224 -73 350 l4 108 -36 0 -37 0 8 48 c36 191 168 387 358 530 l77
58 -213 431 c-229 463 -261 514 -345 548 -24 9 -95 27 -158 39 l-115 22 -3 88
-3 89 66 -7 c36 -4 109 -16 162 -26z m-326 -435 c306 -46 414 -93 491 -214 24
-39 28 -55 28 -118 0 -82 -14 -125 -61 -184 -56 -71 -60 -71 -394 -81 -165 -4
-416 -12 -558 -17 l-257 -9 -44 -40 c-81 -75 -89 -77 -296 -77 -296 -1 -288 0
-308 -36 -9 -17 -43 -68 -74 -112 l-56 -80 33 -41 c84 -105 146 -254 164 -399
5 -43 12 -81 14 -84 6 -5 305 -82 323 -83 6 0 32 41 58 90 26 50 59 104 73
121 38 44 117 81 188 86 83 6 327 -30 409 -61 38 -15 74 -26 81 -26 7 0 21 19
30 43 27 65 75 209 75 223 0 12 -139 62 -217 79 -48 10 -83 57 -83 110 0 56
50 115 98 115 74 0 265 -51 314 -83 91 -62 101 -145 39 -327 -121 -356 -149
-419 -230 -503 l-56 -60 40 7 c58 10 144 56 170 91 37 50 64 109 142 319 41
111 103 273 138 361 35 88 74 197 87 242 l23 83 83 0 c45 0 82 -3 82 -7 0 -5
-36 -109 -81 -233 -44 -124 -113 -319 -154 -435 -40 -115 -87 -245 -103 -288
-58 -147 -124 -226 -236 -278 -62 -29 -63 -29 -317 -35 l-254 -7 -125 37
c-169 49 -557 126 -640 126 -9 0 -31 -31 -52 -73 -110 -212 -316 -383 -538
-444 -100 -28 -318 -25 -427 6 -94 26 -211 89 -290 157 -71 61 -184 208 -223
290 -55 114 -73 210 -67 354 5 139 25 216 84 335 96 192 259 347 441 421 111
45 181 58 292 58 155 -1 294 -43 440 -133 l48 -30 42 50 c23 28 41 52 39 53
-12 11 -301 145 -334 156 -22 7 -146 57 -275 110 -129 53 -263 107 -298 120
-98 36 -146 104 -108 156 14 18 31 19 391 22 l376 3 97 -94 c53 -52 113 -102
132 -112 31 -16 74 -20 365 -26 l330 -8 42 -46 c45 -49 44 -49 58 22 9 47 78
135 177 229 211 199 357 248 619 209z m89 -2705 l0 -120 -33 0 c-19 0 -82 -3
-140 -7 l-107 -6 0 121 0 121 63 4 c34 2 97 4 140 5 l77 2 0 -120z m1160 -560
l0 -680 -135 0 -135 0 0 50 0 50 -47 -37 c-141 -107 -324 -122 -467 -38 -220
129 -301 469 -176 734 75 159 255 263 429 248 88 -7 126 -20 189 -62 30 -19
56 -35 58 -35 2 0 4 101 4 225 l0 225 140 0 140 0 0 -680z m-1975 655 c170
-45 293 -172 331 -343 41 -186 -24 -354 -177 -453 -27 -18 -49 -34 -49 -35 0
-2 9 -18 19 -36 50 -87 241 -450 241 -459 0 -5 -63 -9 -149 -9 l-149 0 -124
228 -124 227 -102 3 -102 3 0 -231 0 -230 -145 0 -145 0 0 675 0 675 308 0
c244 0 320 -3 367 -15z m-1025 -410 l0 -415 80 0 80 0 0 -120 0 -120 -80 0
-80 0 0 -135 0 -135 -140 0 -140 0 0 135 0 136 -305 -3 -305 -3 0 110 0 110
183 280 c100 154 225 347 277 428 l95 147 168 0 167 0 0 -415z m3780 56 c78
-30 148 -87 197 -159 59 -88 75 -145 81 -289 l4 -123 -328 -2 -329 -3 3 -29
c7 -64 59 -133 127 -169 33 -18 56 -22 135 -22 102 1 168 21 218 68 21 20 24
20 33 5 5 -9 32 -43 59 -76 l50 -60 -40 -34 c-96 -83 -235 -123 -390 -115
-274 15 -443 181 -466 458 -24 278 111 498 347 564 76 21 226 14 299 -14z
m-1938 -501 l-2 -480 -140 0 -140 0 0 480 0 480 143 0 142 0 -3 -480z"/>
<path d="M6613 5991 c-24 -4 -45 -9 -47 -12 -3 -3 30 -81 74 -174 l79 -170 53
-6 c65 -7 106 -27 146 -73 98 -112 49 -289 -90 -326 -84 -23 -146 15 -188 117
-33 81 -249 555 -255 562 -9 8 -114 -100 -154 -160 -81 -120 -118 -314 -87
-457 48 -229 249 -419 478 -454 182 -27 365 30 492 155 112 110 165 231 173
392 9 180 -38 296 -177 436 -66 67 -102 94 -160 122 -105 50 -220 67 -337 48z"/>
<path d="M3029 5968 c-96 -34 -173 -84 -247 -163 -114 -119 -162 -238 -162
-395 0 -170 49 -289 165 -405 142 -142 323 -194 530 -150 91 20 162 56 235
123 51 45 150 168 150 184 0 3 -30 8 -67 12 -433 41 -543 55 -590 79 -106 54
-135 129 -96 242 25 69 76 119 143 140 53 16 58 16 134 -4 l80 -21 21 20 c12
11 59 72 105 136 95 132 98 118 -29 182 -72 36 -79 37 -190 40 -100 2 -125 -1
-182 -20z"/>
<path d="M3578 5659 l-66 -94 107 -27 c142 -36 135 -37 127 18 -6 48 -40 118
-80 168 l-22 29 -66 -94z"/>
<path d="M5981 3724 c-88 -44 -131 -129 -131 -260 0 -94 23 -157 76 -210 86
-87 230 -86 333 2 l41 36 0 188 0 188 -35 26 c-81 62 -195 74 -284 30z"/>
<path d="M4220 3876 l0 -186 133 0 c155 0 195 9 247 56 91 83 69 231 -45 292
-23 12 -67 17 -182 20 l-153 4 0 -186z"/>
<path d="M3290 3962 c0 -4 -63 -111 -140 -236 -77 -126 -140 -230 -140 -232 0
-2 65 -4 145 -4 l145 0 0 240 c0 132 -2 240 -5 240 -3 0 -5 -4 -5 -8z"/>
<path d="M7110 3759 c-56 -22 -120 -110 -120 -164 l0 -25 195 0 195 0 0 33 c0
51 -40 118 -86 144 -42 25 -137 31 -184 12z"/>
</g>
</svg>
